<?xml version="1.0" encoding="iso-8859-1"?>
<!-- Generator: Adobe Illustrator 22.0.0, SVG Export Plug-In . SVG Version: 6.00 Build 0)  -->
<svg version="1.1" xmlns="http://www.w3.org/2000/svg" xmlns:xlink="http://www.w3.org/1999/xlink" x="0px" y="0px"
	 viewBox="0 0 396.854 411.707" style="enable-background:new 0 0 396.854 411.707;" xml:space="preserve">
<g id="grid" style="display:none;">
</g>
<g id="atributos">
	<rect x="-853.268" y="-104.277" style="fill:none;stroke:#1A171B;stroke-miterlimit:10;" width="3441.895" height="3443.015"/>
</g>
<g id="open">
	<g>
		<path style="fill:#333333;" d="M396.355,169.93l-28.283-4.195l-0.815-9.83h15.424v-28.346h-17.773L354.333,0h-28.346H70.867
			H42.522L31.947,127.559H14.174v28.346h15.423l-0.815,9.83L0.5,169.93H0v99.362v28.346v28.348v28.346h28.347v57.376h85.04v-57.376
			h170.081v57.376h85.039v-57.376h28.348v-28.346v-28.348v-28.346V169.93H396.355z M68.517,28.346H170.08v28.282h56.694V28.346
			h101.563l11.037,133.132l-13.505-2.003c0.075-1.181,0.117-2.37,0.117-3.57c0-31.311-25.382-56.693-56.692-56.693
			c-26.833,0-49.296,18.648-55.177,43.687l-15.691-2.327L57.479,161.478L68.517,28.346z M242.353,147.087
			c3.709-11.336,14.365-19.529,26.941-19.529c15.447,0,27.999,12.359,28.33,27.727L242.353,147.087z M85.04,382.678H56.692v-28.347
			H85.04V382.678z M340.161,382.678h-28.348v-28.347h28.348V382.678z M368.507,325.986H28.347v-28.348h340.16V325.986z
			 M28.347,269.293v-74.855l170.08-24.846l170.08,24.845v74.855H28.347z"/>
		
			<ellipse transform="matrix(0.3827 -0.9239 0.9239 0.3827 -157.0133 218.557)" style="fill:#333333;" cx="85.04" cy="226.772" rx="28.348" ry="28.348"/>
		
			<ellipse transform="matrix(0.9871 -0.1602 0.1602 0.9871 -32.2986 52.8753)" style="fill:#333333;" cx="311.814" cy="226.772" rx="28.348" ry="28.348"/>
	</g>
</g>
<g id="trazados" style="display:none;">
</g>
</svg>
