<?xml version="1.0" encoding="UTF-8"?>
<svg width="70.6" height="70.6" version="1.1" viewBox="0 0 70.599998 70.599998" xml:space="preserve" xmlns="http://www.w3.org/2000/svg" xmlns:cc="http://creativecommons.org/ns#" xmlns:dc="http://purl.org/dc/elements/1.1/" xmlns:rdf="http://www.w3.org/1999/02/22-rdf-syntax-ns#"><metadata><rdf:RDF><cc:Work rdf:about=""><dc:format>image/svg+xml</dc:format><dc:type rdf:resource="http://purl.org/dc/dcmitype/StillImage"/></cc:Work></rdf:RDF></metadata><g transform="matrix(1.3333 0 0 -1.3333 0 70.6)"><g transform="scale(.1)" fill="#131112"><path d="m391.49 507.46h115.98v-115.98zm-26.558 22.004-26.418-0.133 189.25-189.25 1.699-1.703v191.09h-164.53"/><path d="m178.64 507.46h133.61l195.22-195.22v-138.4l-331.22 331.22zm-9.106 22.004-24.41-24.395 382.64-382.63 1.699-1.703v200.62l-208.11 208.11h-151.82"/><path d="m201.3 43.457-179.31 179.3v139.58l249.1-249.09zm100.91 69.789-300.51 300.49-1.6992 1.707v-201.79l200.6-200.6 0.703-0.707 100.19 100.2 0.715 0.707"/><path d="m22.004 22.004v112.87l4.6367 4.637 117.52-117.5zm4.6484 148.62-26.641-26.641v-143.98h197.26l-169.92 169.91-0.6993 0.711"/><path d="m310.18 291.19 197.3-197.29v-71.894h-66.938l-199.77 199.77zm0 31.113-99.817-99.817-0.711-0.707l221.79-221.78h98.027v103.01l-218.59 218.59-0.703 0.707"/><path d="m202.49 260.01-180.5 180.55v66.902h71.484l178.23-178.24zm0-31.125 99.621 99.633 0.711 0.71-200.24 200.24h-102.58v-98.02l201.78-201.86 0.703-0.707"/><path d="m258.57 22.004 51.848 51.824 51.824-51.824zm51.848 82.941-104.96-104.94h209.89l-104.23 104.24-0.699 0.707"/></g></g></svg>