<?xml version="1.0" encoding="iso-8859-1"?>
<!-- Generator: Adobe Illustrator 22.0.0, SVG Export Plug-In . SVG Version: 6.00 Build 0)  -->
<svg version="1.1" xmlns="http://www.w3.org/2000/svg" xmlns:xlink="http://www.w3.org/1999/xlink" x="0px" y="0px"
	 viewBox="0 0 453.548 382.68" style="enable-background:new 0 0 453.548 382.68;" xml:space="preserve">
<g id="grid" style="display:none;">
</g>
<g id="atributos">
	<rect x="-2133.31" y="-841.921" style="fill:none;stroke:#1A171B;stroke-miterlimit:10;" width="3441.895" height="3443.015"/>
</g>
<g id="open">
	<g>
		<rect x="297.641" y="56.844" style="fill:#333333;" width="56.692" height="28.347"/>
		<path style="fill:#333333;" d="M439.374,0H425.2H113.387v14.173v14.173H85.039v28.498H0V85.19h85.039v28.194h28.348v0.002v14.173
			v14.173h141.734v184.254h28.348v28.732h28.345v27.961h28.347v-27.961h28.348v-28.732h28.347V141.732H425.2h14.174h14.174V0
			H439.374z M396.855,113.387h-14.174h-14.174V297.64h-85.038V113.387h-14.176h-14.172H141.734V28.346H425.2v85.041H396.855z"/>
		<path style="fill:#333333;" d="M198.428,141.733h-28.347c0,46.966,38.074,85.04,85.038,85.04v-28.347
			C223.81,198.427,198.428,173.044,198.428,141.733z"/>
	</g>
</g>
<g id="trazados" style="display:none;">
</g>
</svg>
