<?xml version="1.0" encoding="iso-8859-1"?>
<!-- Generator: Adobe Illustrator 22.0.0, SVG Export Plug-In . SVG Version: 6.00 Build 0)  -->
<svg version="1.1" xmlns="http://www.w3.org/2000/svg" xmlns:xlink="http://www.w3.org/1999/xlink" x="0px" y="0px"
	 viewBox="0 0 396.853 411.027" style="enable-background:new 0 0 396.853 411.027;" xml:space="preserve">
<g id="grid" style="display:none;">
</g>
<g id="atributos">
	<rect x="-1539.807" y="-104.666" style="fill:none;stroke:#1A171B;stroke-miterlimit:10;" width="3441.895" height="3443.015"/>
</g>
<g id="open">
	<g>
		<path style="fill:#333333;" d="M368.508,184.244v0.022H253.324c30.957-17.163,53.036-48.387,57.609-85.053h0.773v-9.394
			c0.066-1.586,0.107-3.177,0.107-4.779v-0.001h-0.107V70.867h-99.297V42.506h28.538V14.16h-28.538V0H184.06v70.867H84.934v28.346
			h0.988c4.572,36.666,26.652,67.889,57.609,85.053H28.346v-0.022H0V382.68h14.17h14.176v28.348h28.348V382.68h283.466v28.348
			h28.349V382.68h14.173h14.173V184.244H368.508z M368.508,212.613v141.719h-155.91V212.613H368.508z M114.585,99.213h167.683
			c-6.75,40.218-41.706,70.867-83.841,70.867C156.292,170.08,121.335,139.43,114.585,99.213z M184.252,212.613v141.719H28.346
			V212.613H184.252z"/>
		<rect x="56.693" y="241.008" style="fill:#333333;" width="85.039" height="28.348"/>
		<rect x="255.121" y="241.008" style="fill:#333333;" width="85.039" height="28.348"/>
	</g>
</g>
<g id="trazados" style="display:none;">
</g>
</svg>
