<?xml version="1.0" encoding="iso-8859-1"?>
<!-- Generator: Adobe Illustrator 22.0.0, SVG Export Plug-In . SVG Version: 6.00 Build 0)  -->
<svg version="1.1" xmlns="http://www.w3.org/2000/svg" xmlns:xlink="http://www.w3.org/1999/xlink" x="0px" y="0px"
	 viewBox="0 0 368.508 439.369" style="enable-background:new 0 0 368.508 439.369;" xml:space="preserve">
<g id="grid" style="display:none;">
</g>
<g id="atributos">
	<rect x="-864.047" y="-1486.186" style="fill:none;stroke:#1A171B;stroke-miterlimit:10;" width="3441.895" height="3443.015"/>
</g>
<g id="open">
	<g>
		<path style="fill:#333333;" d="M368.508,13.455h-0.004V0H0v13.455v14.891v311.812v18.955v9.393h56.693v70.863h28.348v-70.863
			h198.426v70.863h28.346v-70.863h56.691v-9.393h0.004V13.455z M28.348,28.346H340.16v311.812H28.348V28.346z"/>
		<path style="fill:#333333;" d="M283.467,198.425H85.041H56.693v28.348v56.694v28.344v0.002h255.117v-0.002h0.002V198.425h-0.002
			H283.467z M85.041,226.772h198.426v56.694H85.041V226.772z"/>
		<path style="fill:#333333;" d="M184.248,240.937c-7.826,0-14.168,6.354-14.168,14.184c0,7.829,6.342,14.163,14.168,14.163
			c7.836,0,14.178-6.334,14.178-14.163C198.426,247.29,192.084,240.937,184.248,240.937z"/>
		<path style="fill:#333333;" d="M311.811,56.865h-28.344H85.041H56.693v28.346v56.695v28.345v0.002h255.117v-0.002h0.002V56.865
			H311.811z M85.041,85.211h198.426v56.695H85.041V85.211z"/>
		<path style="fill:#333333;" d="M184.248,99.375c-7.826,0-14.168,6.354-14.168,14.184s6.342,14.164,14.168,14.164
			c7.836,0,14.178-6.334,14.178-14.164S192.084,99.375,184.248,99.375z"/>
	</g>
</g>
<g id="trazados" style="display:none;">
</g>
</svg>
