<?xml version="1.0" encoding="utf-8"?>
<!-- Generator: Adobe Illustrator 22.1.0, SVG Export Plug-In . SVG Version: 6.00 Build 0)  -->
<svg version="1.1" id="Capa_1" xmlns="http://www.w3.org/2000/svg" xmlns:xlink="http://www.w3.org/1999/xlink" x="0px" y="0px"
	 viewBox="0 0 200 200" style="enable-background:new 0 0 200 200;" xml:space="preserve">
<style type="text/css">
	.st0{fill:#373736;stroke:#373736;stroke-width:3;stroke-miterlimit:10;}
	.st1{fill:#373736;stroke:#373736;stroke-width:2;stroke-miterlimit:10;}
	.st2{fill:#373736;}
</style>
<g>
	<path class="st0" d="M171.5,96h12.1v-7.5h-11c-0.2-5-3.5-8.2-8.6-8.2l-122.6,0c-3.2,0.1-5.1,1.4-6.1,2.6c-1.3,1.4-2,3.3-2.1,5.6
		H20.6V96h13.7c4.4,18.4,18.7,33.3,38.1,41.1l-25,43.9l4.9,2.8l25.5-44.7c7.8,2.5,16.3,3.9,25.1,3.9c9.6,0,18.7-1.7,27.1-4.7
		l25.7,45.5l4.9-2.8l-25.3-44.9C153.6,128.1,167.3,113.5,171.5,96z M103,137.3c-33.4,0-61-20.6-64-47.8c-0.1-1.2,0.2-2.3,0.7-2.8
		c0.4-0.4,1.1-0.7,2-0.7h122.5c1.8,0,2.9,0.5,3,2.9C164.3,116,136.2,137.3,103,137.3z"/>
	<path class="st1" d="M152.7,96.3l0,0.1c-1.3,15.3-19.6,27.3-35,27.3v4.3c17.7,0,37.9-13.8,39.3-31.4l0-0.1l0-0.3L152.7,96.3z"/>
	<path class="st2" d="M71.5,55.8c2.1,6.1-1.5,9.4-1.9,9.8l2.4,2.9l2.4,2.9c0.3-0.3,8.1-6.7,4.3-18l-0.4-1.2
		c-3-8.8-4.9-15.2-1.4-17.5l-4.1-6.3C64,34,68,45.4,71.1,54.6L71.5,55.8z"/>
	<path class="st2" d="M102.4,55.8c2.1,6.1-1.5,9.4-1.9,9.8l2.4,2.9l-2.4-2.9l4.7,5.9c0.3-0.3,8.1-6.7,4.3-18l-0.4-1.2
		c-3-8.8-4.9-15.2-1.4-17.5l-4.1-6.3c-8.8,5.7-4.9,17.1-1.7,26.3L102.4,55.8z"/>
	<path class="st2" d="M134.4,55.8c2.1,6.1-1.5,9.4-1.9,9.8l2.4,2.9l2.4,2.9c0.3-0.3,8.1-6.7,4.3-18l-0.4-1.2
		c-3-8.8-4.9-15.2-1.4-17.5l-4.1-6.3c-8.8,5.7-4.9,17.1-1.7,26.3L134.4,55.8z"/>
</g>
</svg>
