<?xml version="1.0" encoding="UTF-8" standalone="no"?>
<!-- Created with Inkscape (http://www.inkscape.org/) -->

<svg
   xmlns:dc="http://purl.org/dc/elements/1.1/"
   xmlns:cc="http://creativecommons.org/ns#"
   xmlns:rdf="http://www.w3.org/1999/02/22-rdf-syntax-ns#"
   xmlns:svg="http://www.w3.org/2000/svg"
   xmlns="http://www.w3.org/2000/svg"
   xmlns:sodipodi="http://sodipodi.sourceforge.net/DTD/sodipodi-0.dtd"
   xmlns:inkscape="http://www.inkscape.org/namespaces/inkscape"
   width="206mm"
   height="57mm"
   viewBox="0 0 729.92125 201.96838"
   id="svg2"
   version="1.1"
   inkscape:version="0.91 r13725"
   sodipodi:docname="primeira_versao_ampliee.svg">
  <defs
     id="defs4" />
  <sodipodi:namedview
     id="base"
     pagecolor="#ffffff"
     bordercolor="#666666"
     borderopacity="1.0"
     inkscape:pageopacity="0.0"
     inkscape:pageshadow="2"
     inkscape:zoom="0.7"
     inkscape:cx="362.73104"
     inkscape:cy="443.32259"
     inkscape:document-units="px"
     inkscape:current-layer="layer1"
     showgrid="false"
     showguides="true"
     inkscape:guide-bbox="true"
     inkscape:window-width="960"
     inkscape:window-height="1024"
     inkscape:window-x="960"
     inkscape:window-y="30"
     inkscape:window-maximized="0">
    <sodipodi:guide
       position="522.24887,870.75151"
       orientation="0,1"
       id="guide3368" />
    <sodipodi:guide
       position="490.93414,521.23872"
       orientation="0,1"
       id="guide3370" />
    <sodipodi:guide
       position="509.11689,829.33526"
       orientation="0,1"
       id="guide3372" />
    <sodipodi:guide
       position="157.14286,662.85716"
       orientation="1,0"
       id="guide3374" />
    <sodipodi:guide
       position="181.07143,685.7143"
       orientation="1,0"
       id="guide3376" />
    <sodipodi:guide
       position="167.85714,693.2143"
       orientation="1,0"
       id="guide3386" />
    <sodipodi:guide
       position="357.5,715.35716"
       orientation="0,1"
       id="guide3390" />
    <sodipodi:guide
       position="228.57143,685.00002"
       orientation="0,1"
       id="guide3392" />
    <sodipodi:guide
       position="307.14286,673.92859"
       orientation="0,1"
       id="guide3394" />
  </sodipodi:namedview>
  <metadata
     id="metadata7">
    <rdf:RDF>
      <cc:Work
         rdf:about="">
        <dc:format>image/svg+xml</dc:format>
        <dc:type
           rdf:resource="http://purl.org/dc/dcmitype/StillImage" />
        <dc:title></dc:title>
      </cc:Work>
    </rdf:RDF>
  </metadata>
  <g
     inkscape:label="Layer 1"
     inkscape:groupmode="layer"
     id="layer1"
     transform="translate(0,-850.39432)">
    <g
       transform="matrix(2.8245735,0,0,2.7636345,-104.34924,241.06287)"
       style="font-style:normal;font-variant:normal;font-weight:normal;font-stretch:normal;font-size:40px;line-height:125%;font-family:Laksaman;-inkscape-font-specification:Laksaman;letter-spacing:0px;word-spacing:0px;fill:#FEFEFE;fill-opacity:1;stroke:none;stroke-width:1px;stroke-linecap:butt;stroke-linejoin:miter;stroke-opacity:1"
       id="flowRoot3336">
      <path
         d="m 94.953047,268.67593 q -2.72,0 -4.64,-1.56 -1.88,-1.6 -1.88,-4.12 0,-7.64 13.600003,-7.64 0,-2.92 -1.4,-4.52 -1.400003,-1.6 -4.120003,-1.6 -2.2,0 -6.52,1.36 l -0.28,-2.28 q 3.36,-1.08 6.96,-1.08 7.760003,0 7.760003,8.56 l 0,7.32 q 0,2.52 0.72,5 l -2.08,0.44 -0.84,-3.32 q -2.760003,3.44 -7.280003,3.44 z m -4.12,-6.08 q 0,1.88 1.16,3 1.16,1.08 3.04,1.08 2.4,0 4.68,-1.48 2.320003,-1.52 2.320003,-3.68 l 0,-4.16 q -11.200003,0 -11.200003,5.24 z"
         style="letter-spacing:1.66999996px;fill:#FEFEFE"
         id="path4312" />
      <path
         d="m 135.04617,247.23593 q 3.56,0 5.4,2.68 1.84,2.68 1.84,6.84 l 0,11.36 -2.4,0 0,-11.32 q 0,-3.36 -1.36,-5.44 -1.32,-2.12 -4.12,-2.12 -2.28,0 -4.08,1.8 -1.8,1.8 -1.8,4.08 l 0,13 -2.4,0 0,-12.4 q 0,-6.48 -5.16,-6.48 -2.36,0 -4.28,2.04 -1.92,2.04 -1.92,4.44 l 0,12.4 -2.4,0 0,-15.4 q 0,-1.8 -0.4,-5.04 l 2.2,0 q 0.4,1.24 0.48,3.64 2.36,-4.08 6.88,-4.08 4.16,0 6.2,4.56 2.4,-4.56 7.32,-4.56 z"
         style="letter-spacing:1.66999996px;fill:#FEFEFE"
         id="path4314" />
      <path
         d="m 159.96805,247.23593 q 4.44,0 7,3.12 2.56,3.08 2.56,7.88 0,4.52 -2.52,7.48 -2.48,2.96 -6.68,2.96 -5.08,0 -7.72,-4.36 l 0,13.84 -2.4,0 0,-25.4 q 0,-3.76 -0.16,-5.08 l 2.2,0 q 0.12,1.56 0.12,3.72 2.84,-4.16 7.6,-4.16 z m -0.32,2 q -2.96,0 -5,1.92 -2.04,1.92 -2.04,4.8 l 0,3.44 q 0,3.04 2.12,5.16 2.12,2.12 5.16,2.12 3.48,0 5.36,-2.32 1.88,-2.32 1.88,-6.16 0,-4.16 -1.88,-6.56 -1.84,-2.4 -5.6,-2.4 z"
         style="letter-spacing:1.66999996px;fill:#FEFEFE"
         id="path4316" />
      <path
         d="m 183.85867,266.67593 -0.24,2 q -7.6,-0.36 -7.6,-10.84 l 0,-20.12 2.4,0 0,19.28 q 0,2.28 0.2,3.84 0.2,1.56 0.72,3 0.56,1.44 1.68,2.16 1.12,0.68 2.84,0.68 z"
         style="letter-spacing:1.66999996px;fill:#FEFEFE"
         id="path4318" />
      <path
         d="m 192.07992,268.11593 -2.4,0 0,-20.44 2.4,0 0,20.44 z m -1.28,-28.56 q 0.84,0 1.36,0.56 0.56,0.52 0.56,1.36 0,0.84 -0.56,1.36 -0.52,0.48 -1.36,0.48 -0.84,0 -1.36,-0.48 -0.48,-0.52 -0.48,-1.36 0,-0.84 0.48,-1.36 0.52,-0.56 1.36,-0.56 z"
         style="letter-spacing:1.66999996px;fill:#FEFEFE"
         id="path4320" />
      <path
         d="m 200.90367,258.07593 q 0.12,3.88 2.32,6.24 2.24,2.36 5.96,2.36 3.48,0 7.16,-1.44 l 0.2,1.96 q -3.56,1.48 -7.6,1.48 -4.6,0 -7.52,-2.84 -2.92,-2.88 -2.92,-7.4 0,-4.84 2.8,-8 2.84,-3.2 7.4,-3.2 8.6,0 8.8,10.84 l -16.6,0 z m 14.2,-2 q -0.08,-3.12 -1.92,-4.96 -1.8,-1.88 -4.76,-1.88 -2.96,0 -4.96,1.96 -2,1.92 -2.44,4.88 l 14.08,0 z"
         style="letter-spacing:1.66999996px;fill:#FEFEFE"
         id="path4322" />
      <path
         d="m 225.07368,258.07593 q 0.12,3.88 2.32,6.24 2.24,2.36 5.96,2.36 3.48,0 7.16,-1.44 l 0.2,1.96 q -3.56,1.48 -7.6,1.48 -4.6,0 -7.52,-2.84 -2.92,-2.88 -2.92,-7.4 0,-4.84 2.8,-8 2.84,-3.2 7.4,-3.2 8.6,0 8.8,10.84 l -16.6,0 z m 14.2,-2 q -0.08,-3.12 -1.92,-4.96 -1.8,-1.88 -4.76,-1.88 -2.96,0 -4.96,1.96 -2,1.92 -2.44,4.88 l 14.08,0 z"
         style="letter-spacing:1.66999996px;fill:#FEFEFE"
         id="path4324" />
    </g>
    <path
       style="fill:none;fill-rule:evenodd;stroke:#FEFEFE;stroke-width:5.58787584;stroke-linecap:butt;stroke-linejoin:miter;stroke-miterlimit:4;stroke-dasharray:none;stroke-opacity:1"
       d="m 109.64453,882.55311 -82.744265,69.7923 77.037745,64.20889"
       id="path3346"
       inkscape:connector-curvature="0" />
    <path
       style="fill:none;fill-rule:evenodd;stroke:#FEFEFE;stroke-width:5.58787584;stroke-linecap:butt;stroke-linejoin:miter;stroke-miterlimit:4;stroke-dasharray:none;stroke-opacity:1"
       d="m 180.97576,868.59466 -99.86374,83.75075 97.0105,80.95909"
       id="path3348"
       inkscape:connector-curvature="0" />
    <path
       style="fill:none;fill-rule:evenodd;stroke:#FEFEFE;stroke-width:5.58787584;stroke-linecap:butt;stroke-linejoin:miter;stroke-miterlimit:4;stroke-dasharray:none;stroke-opacity:1"
       d="M 621.17499,1022.7148 703.91922,952.92249 626.8815,888.71353"
       id="path3346-8"
       inkscape:connector-curvature="0" />
    <path
       style="fill:none;fill-rule:evenodd;stroke:#FEFEFE;stroke-width:5.58787584;stroke-linecap:butt;stroke-linejoin:miter;stroke-miterlimit:4;stroke-dasharray:none;stroke-opacity:1"
       d="M 551.68824,1036.6732 651.552,952.92246 554.54148,871.96336"
       id="path3348-8"
       inkscape:connector-curvature="0" />
    <rect
       style="opacity:0;fill:#000c4b;fill-opacity:1;stroke:#ffffff;stroke-width:1.87600005;stroke-linecap:round;stroke-linejoin:round;stroke-miterlimit:4;stroke-dasharray:none;stroke-opacity:1"
       id="rect4309"
       width="694.28577"
       height="226.78571"
       x="14.285714"
       y="835.57648"
       rx="3.4099901"
       ry="14.697" />
  </g>
</svg>
